<?xml version="1.0" encoding="utf-8"?>
<!-- Generator: Adobe Illustrator 21.1.0, SVG Export Plug-In . SVG Version: 6.00 Build 0)  -->
<svg version="1.1" id="Capa_1" xmlns="http://www.w3.org/2000/svg" xmlns:xlink="http://www.w3.org/1999/xlink" x="0px" y="0px"
	 viewBox="0 0 2179.8 510.2" style="enable-background:new 0 0 2179.8 510.2;" xml:space="preserve">
<style type="text/css">
	.st0{fill:#616160;}
	.st1{enable-background:new    ;}
	.st2{fill:#FFFFFF;}
</style>
<g>
	<g>
		<path class="st0" d="M527.1,237.1c7,0,14.1,0,21.1,0c0.8,0,1.1,0.2,1.2,1c1.5,12.6-0.3,24.5-8.3,34.8
			c-6.6,8.5-15.4,13.8-26.1,15.6c-8.9,1.6-17.8,1.3-26.3-1.9c-17.4-6.6-28.5-18.9-32-37.3c-2.5-12.9,0.5-24.9,8.2-35.6
			c7.8-10.8,18.3-17.6,31.5-19.9c14.6-2.5,27.8,0.7,39.2,10.4c0.7,0.6,1.3,1.2,2,1.8c0.3,0.3,0.3,0.5,0,0.8
			c-2.8,2.8-5.7,5.6-8.5,8.5c-0.4,0.4-0.6,0.3-0.9,0c-1.8-1.6-3.8-3.1-5.9-4.4c-6.6-3.9-13.7-5.2-21.2-4.4
			c-14.4,1.5-26.1,11.9-29.7,25.9c-4.5,17.9,5,36.7,22.9,42.2c11.1,3.4,21.8,2.1,31.4-4.9c5.9-4.3,9.1-10.1,10.3-17.2
			c0.1-0.7,0.6-1.6,0.2-2.1c-0.4-0.5-1.4-0.2-2.1-0.2c-9.4,0-18.8,0-28.2,0c-0.9,0-1.1-0.2-1.1-1.1c0.1-3.7,0-7.4,0-11.1
			c0-0.8,0.2-1,1-1C512.9,237.1,520,237.1,527.1,237.1z"/>
		<path class="st0" d="M770.6,242c0,14.8,0,29.6,0,44.4c0,1.2,0,1.2-1.2,1.2c-3.7,0-7.4,0-11.1,0c-0.7,0-0.9-0.2-0.9-0.9
			c0-29.7,0-59.5,0-89.2c0-0.7,0.1-0.9,0.9-0.9c3.8,0,7.6,0.1,11.4,0c0.9,0,1,0.3,1,1.1C770.6,212.4,770.6,227.2,770.6,242z"/>
		<path class="st0" d="M749.2,230.1c0-0.5,0-0.9-0.7-0.9c-3.8,0-7.7,0-11.5,0c-0.5,0-0.7,0.2-0.7,0.7c0,1.2,0,2.4,0,3.6
			c0,0.2,0.1,0.5-0.2,0.7c-0.3,0.1-0.4-0.2-0.6-0.4c-0.7-0.8-1.5-1.5-2.4-2.2c-6.5-4.6-13.7-5.4-21.1-3.2
			c-14.8,4.4-24.2,19.2-21.9,34.5c1.6,10.6,7.3,18.5,16.8,23.4c6,3.1,12.3,4,18.9,2.3c3.8-1,7-2.8,9.7-5.7c0.2-0.2,0.3-0.5,0.7-0.4
			c0.2,0.1,0.2,0.3,0.2,0.5c0,3,0.2,6-0.4,9c-0.7,3.4-2,6.6-4.6,9c-4.3,3.9-9.5,4.7-15,3.6c-5.6-1.1-9.3-4.8-11.8-9.8
			c-0.3-0.6-0.6-0.7-1.2-0.4c-3.4,1.5-6.9,2.9-10.4,4.3c-0.6,0.2-0.6,0.5-0.4,1c3.3,6.9,8.2,12.1,15.3,15.1
			c6.6,2.9,13.4,3.1,20.3,1.5c7.7-1.8,13.5-6.1,17.2-13.1c2.8-5.3,3.9-11.1,3.9-17.1c0-9,0-17.9,0-26.9c0,0,0,0,0,0
			c0-5.4,0-10.8,0-16.2C749.2,238.7,749.2,234.4,749.2,230.1z M733.3,270.7c-6.1,8.4-18.4,8.7-25.2,0.8c-3.2-3.6-4.9-8.4-4.8-15.4
			c0-2.7,1.5-7.3,5-11.1c8.2-8.8,21.7-6.8,26.8,4.1C738.6,256.5,738.2,264,733.3,270.7z"/>
		<path class="st0" d="M586.4,227.3c-17.7,0-31.2,13.5-31.1,31.1c0,17.5,13.7,31,31.2,31c17.6,0,31.2-13.6,31.1-31.2
			C617.5,240.7,604,227.3,586.4,227.3z M599.3,271.2c-8.6,9.9-24.1,7-29-5.2c-0.5-1.2-0.8-2.5-1.1-3.7c-0.2-1.3-0.3-2.6-0.3-4
			c0.1-6.5,2.5-12,8-15.8c9.7-6.6,22.9-1.7,26.1,9.8C605,259.2,604.1,265.7,599.3,271.2z"/>
		<path class="st0" d="M653.6,227.3c-17.7,0-31.2,13.5-31.1,31.1c0,17.5,13.7,31,31.2,31c17.5,0,31.1-13.6,31.1-31.1
			C684.8,240.8,671.3,227.3,653.6,227.3z M662.9,274.4c-6.8,4.6-15.7,3.5-21.5-2.4c-6.8-6.9-7.1-19.2-0.8-26.5
			c8.6-9.9,24.3-7.1,29.1,5.2c1,2.5,1.4,5,1.4,7.6C671,265,668.6,270.6,662.9,274.4z"/>
		<path class="st0" d="M793,267.4c7.4-3,14.8-6.1,22.2-9.2c5.9-2.4,11.8-4.9,17.6-7.3c0.4-0.2,0.9-0.1,0.6-0.9
			c-1.4-3.6-2.9-7.2-5.1-10.4c-10.5-15.5-29.3-15.1-40.5-6.3c-7.2,5.7-10.8,13.4-11.4,22.4c-0.5,6.8,0.8,13.2,4.4,19.1
			c6,9.7,15,14.3,26.3,14.6c0.1,0,0.2,0,0.3,0c0.5,0,1,0,1.5-0.1c9.9-0.6,17.7-5.1,23.6-13c0.4-0.5,0.4-0.7-0.2-1.1
			c-3.1-2-6.2-4.1-9.3-6.2c-0.6-0.4-0.8-0.3-1.2,0.2c-0.5,0.7-1.1,1.4-1.7,2.1c-7,8.2-22,8.3-27.7-2.7
			C792.2,268,792.2,267.7,793,267.4z M790.8,257c-0.4,0.2-0.9,0.6-0.9-0.4c-0.1-7.7,4.9-14.6,12.4-16.7c0.7-0.2,1.5-0.4,2.2-0.5
			c0.6-0.1,1.2-0.1,1.9-0.1c3.9,0.1,7.4,1.2,10,4.4c1.7,2,1.6,2.1-0.7,3.1C807.3,250.2,799.1,253.6,790.8,257z"/>
	</g>
	<g>
		<path class="st0" d="M147.8,191.2c0,0.6,0.1,1.2,0.1,1.8c0,27.3,0,54.6,0,81.9c0,0.6,0,1.3,0,2c-3.9,0-7.6,0-11.5,0
			c0-1.6,0-3.1,0-4.8c-0.4,0.2-0.6,0.3-0.8,0.5c-10.6,10.1-29.8,7.4-36-9.2c-4.2-11.1-3-21.8,5.5-30.7c8-8.5,20.7-8.8,29.5-1.2
			c0.5,0.4,1,0.8,1.7,1.5c0-14.1,0-28,0-41.8C140.1,191.2,143.9,191.2,147.8,191.2z M137.2,253.2c-0.3-2.2-0.3-3.7-0.6-5.2
			c-1.3-6.6-6.3-11-12.8-11.4c-6.1-0.4-11.5,3.4-13.6,9.6c-1.5,4.7-1.4,9.4,0.6,13.8c2.3,5.3,6.4,8.3,12.4,8.2
			c5.9-0.1,10.2-2.9,12.4-8.4C136.5,257.5,136.8,254.9,137.2,253.2z"/>
		<path class="st0" d="M333.2,305.5c-0.9,0.4-2,0.9-2.3-0.6c-0.1-0.4,0.2-1.3,0.4-1.4c0.6-0.2,1.3,0.1,1.9,0.2
			C333.2,304.3,333.2,304.9,333.2,305.5z"/>
		<path class="st0" d="M172,255c0.4,9.1,7.2,14.5,15.8,12.9c2.8-0.5,4.9-2,6.6-4.2c1.3-1.6,2.5-3.3,3.9-5.1c3.2,1.8,6.3,3.5,9.6,5.3
			c-4.8,8.2-11.2,13.9-21,14.3c-3.1,0.1-6.3,0-9.3-0.7c-7.5-1.7-12.7-6.4-15.5-13.5c-3.2-8-3.1-16.3,0.2-24.2
			c3.7-8.6,10.4-13.2,19.8-13.6c2.9-0.1,6,0.1,8.8,0.8c9.3,2.4,14.2,9,15.9,18.1c0.5,2.7,0.4,5.5,0.7,8.2c0.1,1.3-0.4,1.6-1.6,1.6
			c-10.7,0-21.3,0-32,0C173.3,255,172.7,255,172,255z M195.4,245.5c-0.9-5.5-5.4-9-11.3-9c-5.5,0-10.4,3.9-11.2,9
			C180.4,245.5,187.8,245.5,195.4,245.5z"/>
		<path class="st0" d="M236.9,280.5c-8.6-17.8-17-35.2-25.5-52.9c0.7,0,1.1-0.1,1.6-0.1c3.2,0,6.3,0.1,9.5,0c1.3,0,1.9,0.3,2.5,1.6
			c3.7,8.1,7.5,16.3,11.2,24.4c0.2,0.5,0.5,1,0.8,1.7c0.3-0.7,0.6-1.1,0.8-1.6c3.8-8.2,7.6-16.4,11.3-24.7c0.4-0.9,0.9-1.3,2-1.3
			c3.3,0.1,6.6,0,9.9,0c0.4,0,0.9,0,1.6,0.1C254.1,245.2,245.6,262.7,236.9,280.5z"/>
		<path class="st0" d="M305.9,231.5c1.7,0,3.1,0,4.5,0c1.4,0,2.8,0,4.3,0c0,1.6,0,2.9,0,4.6c-2.3,0-4.7,0.1-7,0
			c-1.4-0.1-2,0.3-2.4,1.7c-4.8,16.1-9.7,32.2-14.6,48.3c-0.4,1.2-0.8,1.6-2.1,1.4c-1.6-0.3-3.2-0.3-4.9-0.5
			c5.1-17,10.2-33.9,15.3-50.9c-3,0-5.9,0-8.8,0c0-1.6,0-3,0-4.6c2.5,0,5-0.1,7.4,0c1.1,0,1.6-0.3,1.9-1.4c1.7-5.8,5-10.7,9.2-15
			c2.5-2.5,5.5-3.7,8.9-3.9c3.6-0.2,5.9,1.9,7.7,4.8c1.4,2.2,1,4.5-0.3,6.6c-1.5,2.4-4.4,2.9-6.6,1.1c-1.8-1.5-2.1-3.6-0.8-5.5
			c0.8-1.2,1.8-2.3,2.8-3.4c0.7-0.8,0.5-1.3-0.4-1.7c-3.8-1.9-8.2,0-9.4,4.1C309.1,221.9,307.6,226.5,305.9,231.5z"/>
		<path class="st0" d="M265.6,265.1c4.3,0,7.7,3.4,7.7,7.8c0,4.2-3.4,7.6-7.7,7.6c-4.3,0-7.7-3.5-7.7-7.8
			C257.9,268.5,261.3,265.1,265.6,265.1z"/>
		<path class="st0" d="M197.7,304.6c0.1,0,0.4-0.4,0.7-0.6c1.4-0.9,2.9-0.9,4.3-0.3c1.4,0.6,1.7,1.9,1.7,3.2c0,2.4,0,4.7,0,7.2
			c-0.5,0-1,0.1-1.7,0.1c0-2.5,0.1-4.9-0.1-7.3c-0.1-0.7-0.8-1.9-1.3-2c-1-0.1-2.1,0.2-3,0.8c-0.5,0.3-0.6,1.4-0.7,2.2
			c-0.1,1.5,0,3,0,4.5c0,0.5,0,1.1,0,1.7c-0.6,0-1,0.1-1.5,0.1c-0.1-0.2-0.2-0.4-0.2-0.6c0-2.1,0-4.1,0-6.2c0-1.8-0.6-2.6-1.9-2.7
			c-1.7-0.2-2.9,0.6-3.1,2.4c-0.2,1.5-0.1,3.1-0.1,4.7c0,0.7,0,1.5,0,2.4c-0.6,0-1.1,0.1-1.7,0.1c0-3.5,0-6.8,0-10.2
			c0-0.2,0.5-0.6,0.6-0.6c0.4,0.2,0.8,0.5,1.1,0.7c1.1-0.3,2.3-0.9,3.4-0.9C195.3,303.5,196.4,304.2,197.7,304.6z"/>
		<path class="st0" d="M238.1,313.2c0,2.1,0,3.9,0,5.8c-0.6,0-1.1,0-1.6,0c0-5.1,0-10.2,0-15.7c0.7,0.4,1.2,0.7,1.9,1.1
			c0.4-0.2,1.1-0.7,1.9-0.9c2.6-0.7,4.9,0.7,5.4,3.4c0.2,1.3,0.2,2.7,0,4c-0.6,3.3-4,4.7-6.8,2.8
			C238.7,313.6,238.5,313.5,238.1,313.2z M238.1,309.2c0,0.2,0,0.9,0.1,1.5c0.3,1.7,1.5,2.6,3.3,2.4c1.6-0.2,2.6-1.7,2.6-4.1
			c0-2.4-0.9-3.9-2.6-4.1C239.2,304.6,238.1,305.8,238.1,309.2z"/>
		<path class="st0" d="M99.8,304.7c0-2,0-3.8,0-5.6c0.6,0,1,0,1.5,0c0,5,0,10,0,15.4c-0.7-0.5-1.2-0.8-1.9-1.2
			c-1.4,1.2-3.2,1.6-5.1,0.6c-1.9-1-2.4-2.8-2.4-4.8c0-0.2,0-0.4,0-0.6c0-2,0.5-3.8,2.3-4.7C96.1,302.9,97.9,303.2,99.8,304.7z
			 M99.8,309.1c0-2.5-0.6-3.9-2-4.1c-1-0.1-2.4,0-3,0.6c-1.5,1.5-1.2,3.6-0.7,5.5c0.3,1.1,1.1,1.8,2.3,1.9
			C98.6,313.3,99.8,312,99.8,309.1z"/>
		<path class="st0" d="M183.8,307.8c0.3-3-1.1-3.6-5-2.4c-0.8-0.8-0.7-1.4,0.4-1.6c1.1-0.2,2.3-0.4,3.4-0.4c1.8,0.1,2.8,1,2.9,2.8
			c0.1,2.4,0.1,4.8,0.1,7.2c0,0.3-0.3,0.5-0.4,0.8c-0.5-0.3-0.9-0.6-1.2-0.8c-1.2,0.4-2.4,0.9-3.6,1c-1.9,0.2-3.1-0.9-3.3-2.6
			c-0.2-1.8,0.5-3.1,2.4-3.6c0.7-0.2,1.5-0.3,2.2-0.4C182.3,307.8,183.1,307.8,183.8,307.8z M183.8,309c-1.3,0.2-2.6,0.3-3.8,0.6
			c-1,0.3-1.4,1.1-1.2,2.1c0.1,1,0.9,1.4,1.8,1.4C182.8,313.2,184,311.8,183.8,309z"/>
		<path class="st0" d="M304.7,305.5c-0.8-0.8-0.6-1.4,0.4-1.6c1.3-0.2,2.6-0.4,3.9-0.3c1.5,0.1,2.4,1.1,2.5,2.6c0.1,2.7,0,5.4,0,8.6
			c-0.8-0.6-1.3-1-1.5-1.2c-1.5,0.3-2.9,0.9-4.3,0.9c-1.6,0-2.6-1.1-2.8-2.6c-0.2-1.5,0.5-2.8,2-3.3c0.7-0.3,1.5-0.4,2.3-0.5
			c0.8-0.1,1.6-0.1,2.8-0.2c-0.2-0.9-0.2-1.9-0.6-2.3C307.9,304.1,306.2,305.1,304.7,305.5z M309.6,309c-1.3,0.2-2.6,0.2-3.8,0.6
			c-0.6,0.2-1.1,1.3-1.1,2c-0.1,1,0.8,1.4,1.7,1.5C308.8,313.2,310,311.7,309.6,309z"/>
		<path class="st0" d="M113.4,312.9c-0.4,0.4-0.7,1.1-1.2,1.2c-2.5,0.9-5.3,0.3-6.6-1.4c-1.4-1.8-1.5-5.4-0.1-7.4
			c1.1-1.7,2.8-2.2,4.7-1.9c1.8,0.3,2.9,1.5,3.3,3.3c0.2,0.7,0.2,1.5,0.3,2.5c-1.3,0-2.5,0-3.7,0c-1.2,0-2.4,0-3.6,0
			c-0.4,3.3,1.6,4.2,6.4,3.3C113.1,312.7,113.2,312.8,113.4,312.9z M111.7,307.8c-0.1-2.2-1-3.2-2.8-3c-1.6,0.1-2.5,1.3-2.3,3
			C108.3,307.8,109.9,307.8,111.7,307.8z"/>
		<path class="st0" d="M164,308.9c0,3.4-1.9,5.6-4.9,5.6c-3.1,0-5-2.2-5-5.7c0-3.5,1.8-5.5,5-5.5C162.1,303.4,164,305.5,164,308.9z
			 M155.9,308.9c0,2.7,1,4.1,3,4.2c1.8,0.1,3-1,3.3-3c0.4-2.7-0.4-4.7-2.2-5.2c-0.1,0-0.2,0-0.3-0.1
			C157.3,304.4,155.9,305.9,155.9,308.9z"/>
		<path class="st0" d="M207.4,308.9c0-3.8,2.3-6,5.9-5.4c0.7,0.1,1.4,0.4,1.9,0.7c2,1.4,2.8,4.9,1.6,7.5c-0.9,2.2-3.2,3.3-5.6,2.7
			C208.8,313.9,207.4,311.9,207.4,308.9z M215.6,308.8c0-2.4-1-3.8-2.7-4c-2-0.2-3.2,0.7-3.6,2.8c-0.5,2.8,0.4,5,2.3,5.4
			c0.1,0,0.3,0,0.4,0.1C214.3,313.3,215.6,311.8,215.6,308.8z"/>
		<path class="st0" d="M257.6,309.2c-2.6,0-4.9,0-7.2,0c-0.3,3.4,1.7,4.4,6.4,3.3c0.5,0.9,0.2,1.4-0.8,1.7c-2.6,0.8-5.3,0.2-6.6-1.6
			c-1.3-1.8-1.4-5.3-0.1-7.3c1.1-1.7,2.8-2.2,4.7-1.9c1.8,0.3,2.8,1.4,3.3,3.1C257.5,307.3,257.5,308.1,257.6,309.2z M250.3,307.8
			c1.8,0,3.5,0,5.3,0c0-2-0.7-2.9-2.3-3C251.6,304.7,250.6,305.6,250.3,307.8z"/>
		<path class="st0" d="M288,309c0,3.4-1.9,5.5-5,5.5c-3,0-4.9-2.2-4.9-5.6c0-3.5,1.9-5.6,5.1-5.6C286.2,303.4,288,305.5,288,309z
			 M286.3,308.9c0-2.6-1-4-2.9-4.1c-2-0.1-3.1,0.9-3.4,3.1c-0.4,2.6,0.6,4.7,2.4,5.1c0.1,0,0.3,0,0.4,0.1
			C285,313.3,286.3,311.8,286.3,308.9z"/>
		<path class="st0" d="M132.5,307.7c0.3-2.9-1-3.5-5.1-2.3c-0.7-0.7-0.7-1.4,0.4-1.6c1.3-0.2,2.7-0.4,4-0.3c1.4,0.1,2.3,1.1,2.4,2.5
			c0.1,2.5,0.1,5,0.1,7.5c0,0.3-0.3,0.5-0.5,0.8c-0.4-0.3-0.8-0.6-1.2-0.9c-1.1,0.4-2.2,0.9-3.4,1.1c-2,0.2-3.3-0.9-3.6-2.6
			c-0.3-1.8,0.6-3.2,2.6-3.6C129.6,307.9,131,307.9,132.5,307.7z M132.4,309c-1.3,0.2-2.6,0.3-3.8,0.6c-1,0.3-1.4,1.1-1.2,2.1
			c0.2,1,0.9,1.4,1.8,1.4C131.5,313.2,132.7,311.8,132.4,309z"/>
		<path class="st0" d="M298.4,314.1c0-2.1,0-4.2,0-6.3c0-2.1-0.6-2.9-2.2-3c-2-0.1-3.2,0.7-3.4,2.8c-0.1,2.1,0,4.3,0,6.6
			c-0.6,0-1.1,0.1-1.8,0.1c0-2.2,0-4.3,0-6.4c0-0.9-0.1-1.8,0-2.7c0.1-0.6,0.3-1.1,0.5-1.7c0.5,0.3,1,0.6,1.4,0.9
			c0.8-0.3,1.7-0.8,2.6-1c3-0.4,4.4,1,4.5,4c0,1.9,0,3.7,0,5.6C300.2,314.1,299.8,314.6,298.4,314.1z"/>
		<path class="st0" d="M123.3,303.7c-0.2,1.4-0.6,1.7-1.5,1.5c-1-0.2-2.1-0.3-3.1-0.2c-0.4,0-1,0.6-1,0.9c0,0.4,0.3,1.1,0.6,1.3
			c0.9,0.6,2,0.9,3,1.4c1.4,0.6,2.4,1.4,2.3,3.1c-0.1,1.5-1.2,2.5-3.1,2.7c-1.1,0.1-2.3,0-3.4-0.2c-1-0.1-1.3-0.8-1-1.7
			c1.3,0.2,2.5,0.5,3.7,0.4c0.7-0.1,1.4-0.8,2.1-1.2c-0.5-0.6-0.8-1.4-1.5-1.8c-0.8-0.6-1.8-0.8-2.7-1.2c-1.2-0.6-1.9-1.5-1.8-2.8
			c0.2-1.4,1.2-2.2,2.4-2.3C119.9,303.4,121.5,303.6,123.3,303.7z"/>
		<path class="st0" d="M275.5,303.6c-0.1,1.6-0.6,1.7-1.5,1.5c-1-0.2-2-0.3-3-0.2c-0.4,0-1,0.6-1.1,1c-0.1,0.4,0.3,1.1,0.7,1.3
			c0.9,0.5,1.9,0.8,2.9,1.3c1.8,0.8,2.5,1.8,2.3,3.3c-0.2,1.4-1.2,2.4-3.1,2.6c-1.1,0.1-2.3,0-3.4-0.2c-1-0.1-1.4-0.7-1-1.6
			c1.4,0.1,2.7,0.4,4,0.4c0.6,0,1.5-0.7,1.7-1.3c0.1-0.4-0.6-1.3-1.1-1.6c-0.9-0.6-2-0.9-3-1.4c-1.1-0.5-1.8-1.4-1.7-2.7
			c0.1-1.4,1.1-2.3,2.3-2.4C272.2,303.4,273.8,303.6,275.5,303.6z"/>
		<path class="st0" d="M321.7,303.6c-0.1,1.6-0.6,1.7-1.6,1.5c-0.8-0.2-1.7-0.3-2.5-0.2c-0.6,0.1-1.1,0.7-1.6,1.1
			c0.4,0.5,0.6,1.2,1.1,1.4c0.9,0.5,1.9,0.8,2.9,1.3c1.4,0.6,2.2,1.6,2,3.2c-0.2,1.5-1.3,2.3-2.6,2.5c-1.3,0.1-2.6,0-3.9-0.1
			c-1-0.1-1.3-0.8-1-1.6c1.4,0.1,2.7,0.4,4.1,0.4c0.6,0,1.6-0.7,1.6-1.1c0-0.6-0.6-1.4-1.1-1.8c-0.9-0.6-2-0.9-3-1.4
			c-1.1-0.5-1.8-1.4-1.7-2.8c0.1-1.4,1.1-2.2,2.4-2.4C318.3,303.4,320,303.6,321.7,303.6z"/>
		<path class="st0" d="M227,304c-0.1,1-0.5,1.4-1.4,1.1c-0.9-0.2-1.8-0.4-2.7-0.2c-0.6,0.1-1.1,0.7-1.6,1.1c0.4,0.5,0.6,1.2,1.1,1.4
			c0.9,0.5,1.9,0.8,2.9,1.3c1.4,0.6,2.2,1.5,2,3.1c-0.2,1.6-1.3,2.4-2.8,2.5c-1.2,0.1-2.5,0-3.7-0.1c-1-0.1-1.3-0.7-1-1.6
			c1.4,0.1,2.7,0.4,4,0.4c0.6,0,1.2-0.8,1.8-1.2c-0.4-0.6-0.7-1.4-1.3-1.8c-0.9-0.6-2-0.9-3-1.4c-1.1-0.5-1.8-1.4-1.6-2.8
			c0.1-1.3,1-2,2.2-2.3C223.7,303.1,225.3,303.3,227,304z"/>
		<path class="st0" d="M324.3,299.7c0.6,0.4,1.3,0.6,1.7,1.2c3.1,4.2,3.1,11.4,0.1,15.6c-0.4,0.6-1.2,0.8-2,1
			c3.4-5.9,3.3-11.7-0.2-17.5C324.1,299.9,324.2,299.8,324.3,299.7z"/>
		<path class="st0" d="M233.6,300.3c-3.5,5.7-3.4,11.3,0,17c-0.1,0.1-0.2,0.3-0.3,0.4c-0.6-0.3-1.4-0.5-1.7-1
			c-3.2-4.1-3.2-11.9,0.1-16c0.4-0.5,1.1-0.6,1.7-0.9C233.5,299.9,233.6,300.1,233.6,300.3z"/>
		<path class="st0" d="M168.8,314.2c-0.6,0-1.1,0-1.6,0c0-5,0-10,0-15.1c0.7,0,1.6-0.6,1.6,0.8C168.8,304.6,168.8,309.3,168.8,314.2
			z"/>
		<path class="st0" d="M147.9,305.3c1.3-1.6,2.6-2.3,4.5-1.8c0,0.4-0.1,0.8-0.1,1.3c-3.3,0-4.4,1.4-4.3,4.8c0.1,1.5,0,3,0,4.6
			c-0.6,0-1,0.1-1.7,0.1c0-3.5,0-6.8,0-10.2c0-0.2,0.4-0.6,0.6-0.6c0.3,0,0.6,0.2,0.8,0.4C147.8,304.3,147.8,304.7,147.9,305.3z"/>
		<path class="st0" d="M139.5,305.3c1.3-1.6,2.6-2.3,4.5-1.8c0,0.4-0.1,0.9-0.1,1.3c-3.3,0-4.4,1.4-4.3,4.8c0.1,1.5,0,3,0,4.6
			c-0.6,0-1,0.1-1.7,0.1c0-3.5,0-6.8,0-10.1c0-0.2,0.4-0.6,0.6-0.6c0.3,0,0.6,0.2,0.8,0.4C139.4,304.3,139.4,304.7,139.5,305.3z"/>
		<path class="st0" d="M262.1,314.2c-0.6,0-1,0-1.6,0c0-3.5,0-7,0-10.5c1.2-0.3,1.2-0.3,1.6,1.4c1.2-1.2,2.4-2.2,4.3-1.6
			c0,0.4,0,0.8,0,1.2c-0.2,0.1-0.3,0.2-0.5,0.2c-2.7,0.1-3.8,1.2-3.9,3.9C262.1,310.6,262.1,312.3,262.1,314.2z"/>
		<path class="st0" d="M174,314.2c-0.5,0-1,0-1.5,0c0-5.1,0-10,0-15.1c0.5,0,0.9,0,1.5,0C174,304.1,174,309.1,174,314.2z"/>
		<path class="st0" d="M330.1,316.8c0.3-1.4,0.4-2.9,0.9-4.2c0.1-0.4,1.1-0.6,1.8-0.9C332.7,314.5,331.4,316.9,330.1,316.8z"/>
	</g>
	<g>
		<path class="st0" d="M1183,233.1c0.4-0.6,0.7-1,1-1.5c7.1-11.5,14.2-22.9,21.3-34.4c0.6-0.9,1.2-1.4,2.3-1.3
			c5.9,0.1,11.8,0,17.7,0c0.5,0,1,0,1.6,0c0,29.3,0,58.5,0,87.8c-6.3,0-12.6,0-19.1,0c0-18.9,0-37.8,0-56.7c-0.1,0-0.2-0.1-0.3-0.1
			c-8.2,12.4-16.3,24.7-24.7,37.4c-8.2-12.5-16.3-24.8-24.4-37c-0.1,0-0.2,0.1-0.3,0.1c0,18.7,0,37.5,0,56.3c-6.4,0-12.6,0-18.9,0
			c0-29.2,0-58.4,0-87.8c0.5,0,0.9,0,1.4,0c6,0,12,0,18,0c1,0,1.6,0.4,2.1,1.2c7.1,11.5,14.2,22.9,21.3,34.4
			C1182.2,232,1182.5,232.4,1183,233.1z"/>
		<path class="st0" d="M1272.7,239.2c-9.7-14.3-19.5-28.6-29.3-43.1c0.6,0,1-0.1,1.4-0.1c6.6,0,13.2,0,19.7,0c1,0,1.6,0.4,2.1,1.2
			c5.5,8.6,11.1,17.2,16.7,25.8c0.3,0.5,0.6,1,1,1.6c4.1-6.3,8.1-12.4,12.1-18.5c2-3,3.9-6.1,5.9-9c0.3-0.4,0.9-0.9,1.3-0.9
			c6.9-0.1,13.8,0,21.1,0c-0.4,0.6-0.6,1.1-0.9,1.5c-9.1,13.4-18.3,26.8-27.5,40.1c-0.7,1-0.7,1.6,0,2.7c9.6,14,19.1,28,28.7,42
			c0.3,0.4,0.6,0.9,0.9,1.5c-0.6,0-1,0.1-1.5,0.1c-6.5,0-13.1,0-19.6,0c-1,0-1.6-0.3-2.1-1.2c-5.9-9.2-11.9-18.3-17.9-27.4
			c-0.3-0.4-0.6-0.9-1-1.5c-0.4,0.5-0.7,0.9-1,1.4c-6,9.2-12.1,18.3-18.1,27.5c-0.4,0.7-0.8,1.2-1.8,1.2c-6.6,0-13.3,0-19.9,0
			c-0.2,0-0.5-0.1-0.9-0.1C1252.4,268.8,1262.5,254,1272.7,239.2z"/>
		<path class="st0" d="M1046,196.2c0.4,0,0.7-0.1,1-0.1c10.9,0,21.8-0.5,32.6,0.3c18,1.3,32.1,9.5,39.1,26.8
			c9.5,23.6-1.6,52-30.5,59.1c-3.9,1-8.1,1.4-12.2,1.5c-9.6,0.2-19.3,0.1-28.9,0.1c-0.3,0-0.7,0-1.1-0.1
			C1046,254.5,1046,225.4,1046,196.2z M1053.9,276.4c6.5,0,12.8,0.1,19.1,0c3.3,0,6.6-0.1,9.9-0.6c20.6-3.1,33.3-20.5,30.5-41.2
			c-2.5-18.1-16.6-30-34.6-30.9c-7.9-0.4-15.9-0.2-23.9-0.2c-0.3,0-0.7,0.1-1,0.1C1053.9,227.8,1053.9,252,1053.9,276.4z"/>
		<path class="st0" d="M1023.7,264.2c1.7,1.9,3.3,3.6,5,5.6c-1.4,1.3-3.1,2.9-4.8,4.3c-6.7,5.6-14.3,9.5-23.1,10.7
			c-24.2,3.3-44.8-11.4-49.5-34.6c-2.9-14.1-0.4-27.3,8.6-38.8c8.2-10.6,19.3-16.1,32.7-16.7c13.9-0.6,25.5,4.4,35.4,13.9
			c0.2,0.2,0.3,0.4,0.5,0.6c-1.9,1.8-3.8,3.6-5.6,5.3c-2.7-2.1-5.4-4.5-8.4-6.5c-14.5-9.7-33.6-7.7-45.5,4.6
			c-6.4,6.6-9.6,14.6-10.3,23.7c-0.8,10.2,1.5,19.6,7.8,27.7c8.3,10.8,19.4,15.1,32.9,13.6c8.2-0.9,15-4.8,21-10.1
			C1021.3,266.5,1022.4,265.4,1023.7,264.2z"/>
		<path class="st0" d="M1168.1,303.1c0,4.1,0,8.1,0,12.2c-0.7,0-1.3,0-2,0c0-2.8,0-5.5,0-8.3c-0.1,0-0.2-0.1-0.3-0.1
			c-1.2,1.8-2.4,3.5-3.7,5.5c-1.3-1.9-2.5-3.6-3.9-5.8c0,3.1,0,5.8,0,8.7c-0.8,0-1.4,0-2.1,0c0-4,0-8,0-12.1
			c1.4-0.4,2.4-0.2,3.1,1.2c0.8,1.5,1.8,2.9,2.9,4.6c1-1.6,1.9-3,2.8-4.4C1165.9,302.9,1165.9,302.9,1168.1,303.1z"/>
		<path class="st0" d="M1078.7,303.1c2.1,0,4.1-0.2,6,0c3.1,0.4,5.2,3,5.1,6.3c-0.1,3.1-2.3,5.5-5.4,5.8c-1.8,0.2-3.7,0-5.7,0
			C1078.7,311.2,1078.7,307.2,1078.7,303.1z M1080.9,313.3c2.4,0.1,4.7,0.4,6.1-1.9c0.9-1.4,0.7-3.6-0.3-4.9c-1.1-1.5-3.6-2-5.8-1.3
			C1080.9,307.9,1080.9,310.6,1080.9,313.3z"/>
		<path class="st0" d="M1124.9,315.2c0-4.1,0-8.1,0-12.1c2.2,0,4.3-0.3,6.4,0.1c3.1,0.5,5,3.3,4.8,6.4c-0.2,3-2.4,5.4-5.5,5.6
			C1128.8,315.4,1126.9,315.2,1124.9,315.2z M1127.2,313.4c2.4,0.1,4.8,0.4,6.1-2c0.9-1.6,0.8-3.3-0.2-4.8c-1.5-2-3.7-1.7-5.9-1.6
			C1127.2,307.8,1127.2,310.5,1127.2,313.4z"/>
		<path class="st0" d="M1227,309.2c0,3.7-2.8,6.4-6.5,6.4c-3.7,0-6.4-2.7-6.4-6.3c0-3.7,2.7-6.5,6.4-6.5
			C1224.2,302.8,1227,305.5,1227,309.2z M1220.5,304.8c-2.4,0-4.2,1.9-4.2,4.4c0,2.5,1.9,4.4,4.3,4.3c2.3,0,4.2-1.9,4.2-4.3
			C1224.8,306.7,1222.9,304.8,1220.5,304.8z"/>
		<path class="st0" d="M1105.8,315.2c0-4.1,0-8.1,0-12.4c2.4,0.2,4.7,0.1,6.9,0.6c3,0.7,4.5,3.4,4.1,6.7c-0.3,2.7-2.5,4.9-5.3,5.1
			C1109.7,315.4,1107.8,315.2,1105.8,315.2z M1108,305c0,2.9,0,5.6,0,8.4c2.3,0.1,4.6,0.4,6.1-1.9c0.9-1.4,0.8-3.5-0.2-4.9
			C1112.3,304.6,1110.1,304.9,1108,305z"/>
		<path class="st0" d="M1138.9,303c3,0,6,0,9,0c0,0.6,0,1.1,0,1.8c-2.3,0-4.5,0-6.9,0c0,1.1,0,2.1,0,3.2c1.9,0,3.9,0,6,0
			c0,0.8,0,1.3,0,2c-2,0-3.9,0-6,0c0,1.1,0,2.1,0,3.3c2.3,0,4.6,0,6.9,0c0,0.7,0,1.2,0,1.8c-3,0-6,0-9.1,0
			C1138.9,311.2,1138.9,307.2,1138.9,303z"/>
		<path class="st0" d="M1173.6,310.1c0,1.2,0,2.2,0,3.3c2.3,0,4.6,0,7,0c0,0.7,0,1.2,0,1.8c-3,0-6,0-9.1,0c0-4,0-8,0-12.1
			c3,0,5.9,0,9,0c0,0.5,0,1.1,0,1.7c-2.3,0-4.5,0-6.9,0c0,1.1,0,2.1,0,3.2c2,0,4,0,6,0c0,0.7,0,1.3,0,2
			C1177.7,310.1,1175.7,310.1,1173.6,310.1z"/>
		<path class="st0" d="M1065.1,303c0.7,0,1.3,0,2.1,0c0,1.8,0,3.5,0,5.3c0,0.7,0,1.5,0,2.2c0.1,1.9,1.2,3,3,3
			c1.9,0.1,3.1-0.9,3.2-2.9c0.1-1.9,0-3.8,0.1-5.8c0-0.6,0-1.2,0-1.8c0.7,0,1.3,0,1.9,0c0,3,0.3,6-0.1,8.9c-0.3,2.6-2.5,3.8-5.6,3.6
			c-2.5-0.2-4.3-1.6-4.5-4.1C1065,308.7,1065.1,305.9,1065.1,303z"/>
		<path class="st0" d="M1103.4,315.1c-1.5,0.6-2.5,0.2-2.8-1.4c-0.3-1.3-1.1-1.6-2.3-1.5c-0.5,0.1-1,0.1-1.5,0
			c-1.8-0.2-3.2,0.1-3.8,2.2c-0.1,0.5-1.3,0.8-2,1.1c-0.1-0.2-0.3-0.3-0.4-0.5c0.3-0.8,0.6-1.6,1-2.4c1.3-3,2.6-6.1,4-9
			c0.2-0.4,0.8-0.8,1.3-0.8c0.4,0,1.1,0.3,1.3,0.6C1100.1,307.4,1101.7,311.2,1103.4,315.1z M1099.2,310.4c-0.7-1.6-1.4-3.1-2.1-4.9
			c-0.8,1.8-1.4,3.3-2.1,4.9C1096.4,310.4,1097.7,310.4,1099.2,310.4z"/>
		<path class="st0" d="M1193.8,315.1c-1.6,0.5-2.6,0.2-3.4-1.2c-0.6-1.1-1.4-2-2.2-3.3c-0.8,1.2-1.7,2.2-2.4,3.4
			c-0.7,1.2-1.7,1.5-3.2,1.1c1.5-2,2.8-4,4.3-6c-1.4-2-2.7-3.9-4.2-6c1.5-0.5,2.6-0.2,3.4,1.2c0.5,1,1.3,1.9,2,3
			c0.8-1.1,1.6-2,2.2-3.1c0.7-1.3,1.7-1.6,3.2-1.1c-1,1.4-1.8,2.9-2.9,4.1c-1.2,1.3-1,2.3,0,3.5
			C1191.8,312.1,1192.7,313.6,1193.8,315.1z"/>
		<path class="st0" d="M1057.1,304.7c-0.5,0.5-0.9,0.9-1.2,1.3c-3.7-1.7-5.5-1.6-6.9,0.4c-1.3,1.8-1,4.5,0.5,6
			c1.6,1.6,3.8,1.4,6.5-0.5c0.4,0.4,0.7,0.9,1.1,1.3c-1.9,2.6-6,3-8.7,1c-2.9-2.2-3.3-6.6-0.9-9.4
			C1049.8,302.2,1054.2,302,1057.1,304.7z"/>
		<path class="st0" d="M1212.5,304.7c-0.5,0.5-0.8,0.9-1.2,1.3c-3.3-1.8-5.2-1.7-6.7,0.2c-1.3,1.6-1.3,4.1,0,5.8
			c1.5,1.9,3.4,1.9,6.8,0c0.3,0.4,0.7,0.8,1,1.2c-1.8,2.6-6,3.1-8.7,1c-2.8-2.2-3.2-6.7-0.9-9.4
			C1205.3,302.1,1209.7,302,1212.5,304.7z"/>
		<path class="st0" d="M1061.8,303.1c0,4.1,0,8.1,0,12.1c-0.6,0-1.2,0-1.9,0c0-4,0-8,0-12.1C1060.5,303.1,1061.1,303.1,1061.8,303.1
			z"/>
		<path class="st0" d="M1196.4,315.2c0-4.1,0-8.1,0-12.2c0.6,0,1.2,0,1.9,0c0,4,0,8,0,12.2C1197.8,315.2,1197.2,315.2,1196.4,315.2z
			"/>
		<path class="st0" d="M1174.9,301.7c0.6-0.9,1.1-1.7,1.7-2.6c0.6,0.3,1.2,0.5,1.9,0.8C1177.4,300.8,1176.8,302.3,1174.9,301.7z"/>
	</g>
	<g>
		<polygon class="st0" points="1613.4,214.7 1536.3,214.7 1536.3,235.6 1584.4,235.6 1534.9,287 1534.9,307.9 1613.4,307.9 
			1613.4,287 1565.5,287 1613.4,235.6 		"/>
		<polygon class="st0" points="1708.3,214.6 1631.3,214.6 1631.3,235.5 1679.3,235.5 1629.9,286.9 1629.9,307.8 1708.3,307.8 
			1708.3,286.9 1660.5,286.9 1708.3,235.5 		"/>
		<rect x="1494.1" y="187.7" class="st0" width="22.3" height="21.2"/>
		<rect x="1494.1" y="235.6" class="st0" width="22.3" height="72.3"/>
		<rect x="1727.9" y="214.7" class="st0" width="22.2" height="72.3"/>
		<rect x="1779.2" y="214.7" class="st0" width="22.2" height="21.2"/>
		<rect x="1727.9" y="313" class="st0" width="22.2" height="21.1"/>
		<rect x="1442.6" y="286.8" class="st0" width="22.3" height="21.2"/>
	</g>
	<g>
		<path id="bg" class="st0" d="M2087.8,303.4c0,13.3-10.9,24.2-24.2,24.2h-96.6c-13.3,0-24.2-10.9-24.2-24.2v-96.6
			c0-13.3,10.9-24.2,24.2-24.2h96.6c13.3,0,24.2,10.9,24.2,24.2V303.4z"/>
		<g id="B" class="st1">
			<path class="st2" d="M1982.3,214.1h41.1c7.6,0,13.7,1.7,18.2,5.2s6.9,8.7,6.9,15.7c0,4.3-1,7.9-3.1,10.9c-2.1,3-5.1,5.4-9,7.1
				v0.2c5.2,1.1,9.2,3.6,11.8,7.4c2.7,3.8,4,8.6,4,14.4c0,3.3-0.6,6.4-1.8,9.3c-1.2,2.9-3,5.4-5.6,7.5c-2.5,2.1-5.8,3.7-9.7,5
				c-4,1.2-8.6,1.8-14.1,1.8h-38.8V214.1L1982.3,214.1z M1997.1,249.6h24.2c3.6,0,6.5-1,8.9-3c2.4-2,3.6-4.9,3.6-8.7
				c0-4.3-1.1-7.3-3.2-9s-5.2-2.6-9.2-2.6h-24.2V249.6L1997.1,249.6z M1997.1,286.6h26.2c4.5,0,8-1.2,10.5-3.5
				c2.5-2.3,3.7-5.6,3.7-9.9c0-4.2-1.2-7.4-3.7-9.7c-2.5-2.3-6-3.4-10.5-3.4h-26.2V286.6z"/>
		</g>
	</g>
</g>
</svg>
